<svg xmlns="http://www.w3.org/2000/svg" width="280" height="350" viewBox="0 0 280 350"><rect width="100%" height="100%" fill="white"/><g transform="translate(0,0)"><rect x="20" y="20" width="180" height="200" fill="none" stroke="#777"/><g fill="#24b7d9"><circle cx="20.0" cy="110.0" r="1.5"/><circle cx="36.9" cy="90.3" r="1.5"/><circle cx="58.3" cy="67.9" r="1.5"/><circle cx="83.2" cy="52.8" r="1.5"/><circle cx="110.4" cy="40.0" r="1.5"/><circle cx="30.1" cy="129.2" r="1.5"/><circle cx="48.3" cy="109.9" r="1.5"/><circle cx="74.8" cy="97.1" r="1.5"/><circle cx="102.4" cy="78.2" r="1.5"/><circle cx="126.3" cy="64.4" r="1.5"/><circle cx="150.3" cy="49.4" r="1.5"/><circle cx="37.6" cy="159.2" r="1.5"/><circle cx="61.2" cy="140.6" r="1.5"/><circle cx="82.0" cy="120.3" r="1.5"/><circle cx="113.5" cy="101.4" r="1.5"/><circle cx="142.8" cy="88.8" r="1.5"/><circle cx="167.7" cy="71.6" r="1.5"/><circle cx="54.7" cy="186.7" r="1.5"/><circle cx="71.9" cy="168.3" r="1.5"/><circle cx="163.5" cy="111.5" r="1.5"/><circle cx="184.6" cy="96.6" r="1.5"/><circle cx="72.6" cy="207.4" r="1.5"/><circle cx="90.6" cy="203.0" r="1.5"/><circle cx="179.3" cy="143.0" r="1.5"/><circle cx="195.3" cy="125.2" r="1.5"/><circle cx="110.5" cy="220.0" r="1.5"/><circle cx="138.9" cy="215.0" r="1.5"/><circle cx="164.1" cy="192.5" r="1.5"/><circle cx="184.8" cy="171.8" r="1.5"/><circle cx="200.0" cy="149.9" r="1.5"/></g><text x="20" y="245">patch 0: fitting UV support</text><foreignObject x="20" y="252" width="220" height="90"><div xmlns="http://www.w3.org/1999/xhtml" style="font:10px sans-serif;white-space:normal">idw_seed: coverage=0.029, degenerate=0.000, fold=0.028 | round_1: coverage=0.029, degenerate=0.000, fold=0.000 | round_2: coverage=0.029, degenerate=0.000, fold=0.000</div></foreignObject></g></svg>