<svg xmlns="http://www.w3.org/2000/svg" width="280" height="350" viewBox="0 0 280 350"><rect width="100%" height="100%" fill="white"/><g transform="translate(0,0)"><rect x="20" y="20" width="180" height="200" fill="none" stroke="#777"/><g fill="#24b7d9"><circle cx="174.2" cy="114.4" r="1.5"/><circle cx="183.8" cy="112.8" r="1.5"/><circle cx="200.0" cy="113.7" r="1.5"/><circle cx="163.3" cy="93.3" r="1.5"/><circle cx="151.7" cy="80.6" r="1.5"/><circle cx="165.2" cy="82.6" r="1.5"/><circle cx="137.5" cy="71.5" r="1.5"/><circle cx="109.8" cy="65.4" r="1.5"/><circle cx="110.9" cy="48.8" r="1.5"/><circle cx="111.7" cy="41.8" r="1.5"/><circle cx="109.1" cy="40.0" r="1.5"/><circle cx="84.4" cy="43.0" r="1.5"/><circle cx="176.4" cy="121.2" r="1.5"/><circle cx="178.2" cy="142.2" r="1.5"/><circle cx="153.5" cy="109.4" r="1.5"/><circle cx="156.3" cy="123.7" r="1.5"/><circle cx="134.6" cy="104.7" r="1.5"/><circle cx="118.8" cy="94.5" r="1.5"/><circle cx="108.1" cy="73.0" r="1.5"/><circle cx="97.3" cy="80.6" r="1.5"/><circle cx="86.1" cy="76.5" r="1.5"/><circle cx="81.8" cy="64.2" r="1.5"/><circle cx="79.6" cy="53.5" r="1.5"/><circle cx="152.0" cy="157.3" r="1.5"/><circle cx="167.1" cy="158.3" r="1.5"/><circle cx="143.5" cy="128.7" r="1.5"/><circle cx="139.8" cy="139.6" r="1.5"/><circle cx="127.2" cy="112.2" r="1.5"/><circle cx="124.7" cy="119.7" r="1.5"/><circle cx="117.1" cy="128.2" r="1.5"/><circle cx="117.2" cy="103.8" r="1.5"/><circle cx="108.8" cy="108.6" r="1.5"/><circle cx="102.6" cy="116.7" r="1.5"/><circle cx="92.4" cy="93.2" r="1.5"/><circle cx="86.7" cy="102.3" r="1.5"/><circle cx="74.1" cy="77.2" r="1.5"/><circle cx="158.3" cy="167.8" r="1.5"/><circle cx="142.0" cy="170.0" r="1.5"/><circle cx="132.0" cy="159.4" r="1.5"/><circle cx="111.6" cy="136.8" r="1.5"/><circle cx="106.3" cy="147.0" r="1.5"/><circle cx="99.0" cy="151.2" r="1.5"/><circle cx="97.6" cy="125.7" r="1.5"/><circle cx="91.2" cy="133.9" r="1.5"/><circle cx="93.5" cy="144.9" r="1.5"/><circle cx="79.1" cy="114.3" r="1.5"/><circle cx="73.6" cy="129.2" r="1.5"/><circle cx="49.8" cy="95.1" r="1.5"/><circle cx="58.8" cy="106.3" r="1.5"/><circle cx="137.4" cy="201.7" r="1.5"/><circle cx="133.1" cy="186.8" r="1.5"/><circle cx="118.5" cy="176.6" r="1.5"/><circle cx="99.0" cy="181.7" r="1.5"/><circle cx="97.3" cy="158.8" r="1.5"/><circle cx="76.4" cy="134.1" r="1.5"/><circle cx="82.2" cy="144.2" r="1.5"/><circle cx="53.4" cy="139.5" r="1.5"/><circle cx="66.1" cy="142.6" r="1.5"/><circle cx="35.2" cy="114.7" r="1.5"/><circle cx="46.2" cy="121.9" r="1.5"/><circle cx="126.6" cy="220.0" r="1.5"/><circle cx="123.9" cy="209.7" r="1.5"/><circle cx="100.7" cy="201.1" r="1.5"/><circle cx="91.6" cy="192.3" r="1.5"/><circle cx="80.2" cy="178.6" r="1.5"/><circle cx="66.9" cy="166.1" r="1.5"/><circle cx="29.9" cy="157.5" r="1.5"/><circle cx="36.4" cy="152.8" r="1.5"/><circle cx="52.3" cy="157.7" r="1.5"/><circle cx="20.0" cy="131.1" r="1.5"/><circle cx="32.9" cy="146.4" r="1.5"/></g><text x="20" y="245">patch 0: fitting UV support</text><foreignObject x="20" y="252" width="220" height="90"><div xmlns="http://www.w3.org/1999/xhtml" style="font:10px sans-serif;white-space:normal">idw_seed: coverage=0.069, degenerate=0.000, fold=0.009 | round_1: coverage=0.069, degenerate=0.000, fold=0.000 | round_2: coverage=0.069, degenerate=0.000, fold=0.000</div></foreignObject></g></svg>