<svg xmlns="http://www.w3.org/2000/svg" width="960" height="350" viewBox="0 0 960 350"><rect width="100%" height="100%" fill="white"/><g transform="translate(0,0)"><rect x="20" y="20" width="180" height="200" fill="none" stroke="#777"/><g fill="#24b7d9"><circle cx="189.9" cy="69.4" r="1.5"/><circle cx="200.0" cy="211.3" r="1.5"/><circle cx="155.5" cy="51.8" r="1.5"/><circle cx="160.3" cy="211.1" r="1.5"/><circle cx="126.2" cy="79.6" r="1.5"/><circle cx="119.9" cy="218.7" r="1.5"/><circle cx="95.9" cy="40.0" r="1.5"/><circle cx="91.5" cy="220.0" r="1.5"/><circle cx="56.2" cy="73.1" r="1.5"/><circle cx="50.9" cy="206.0" r="1.5"/><circle cx="20.5" cy="65.1" r="1.5"/><circle cx="20.0" cy="211.2" r="1.5"/></g><text x="20" y="245">patch 0: fitting UV support</text><foreignObject x="20" y="252" width="220" height="90"><div xmlns="http://www.w3.org/1999/xhtml" style="font:10px sans-serif;white-space:normal">idw_seed: coverage=0.012, degenerate=0.000, fold=0.000 | round_1: coverage=0.012, degenerate=0.000, fold=0.000 | round_2: coverage=0.012, degenerate=0.000, fold=0.000</div></foreignObject></g><g transform="translate(240,0)"><rect x="20" y="20" width="180" height="200" fill="none" stroke="#777"/><g fill="#24b7d9"><circle cx="200.0" cy="41.0" r="1.5"/><circle cx="193.5" cy="219.0" r="1.5"/><circle cx="162.9" cy="53.1" r="1.5"/><circle cx="158.7" cy="201.5" r="1.5"/><circle cx="126.9" cy="47.9" r="1.5"/><circle cx="122.6" cy="219.1" r="1.5"/><circle cx="88.4" cy="40.0" r="1.5"/><circle cx="90.2" cy="178.7" r="1.5"/><circle cx="58.4" cy="47.6" r="1.5"/><circle cx="65.0" cy="199.4" r="1.5"/><circle cx="20.0" cy="47.3" r="1.5"/><circle cx="20.3" cy="220.0" r="1.5"/></g><text x="20" y="245">patch 1: fitting UV support</text><foreignObject x="20" y="252" width="220" height="90"><div xmlns="http://www.w3.org/1999/xhtml" style="font:10px sans-serif;white-space:normal">idw_seed: coverage=0.012, degenerate=0.000, fold=0.000 | round_1: coverage=0.012, degenerate=0.000, fold=0.000 | round_2: coverage=0.012, degenerate=0.000, fold=0.000</div></foreignObject></g><g transform="translate(480,0)"><rect x="20" y="20" width="180" height="200" fill="none" stroke="#777"/><g fill="#24b7d9"><circle cx="197.5" cy="70.9" r="1.5"/><circle cx="199.0" cy="41.1" r="1.5"/><circle cx="163.4" cy="71.2" r="1.5"/><circle cx="164.6" cy="44.5" r="1.5"/><circle cx="130.8" cy="68.9" r="1.5"/><circle cx="133.0" cy="43.0" r="1.5"/><circle cx="96.2" cy="70.0" r="1.5"/><circle cx="99.2" cy="40.1" r="1.5"/><circle cx="60.6" cy="73.9" r="1.5"/><circle cx="62.0" cy="44.0" r="1.5"/><circle cx="28.5" cy="67.3" r="1.5"/><circle cx="34.1" cy="40.0" r="1.5"/><circle cx="194.4" cy="105.3" r="1.5"/><circle cx="194.7" cy="139.9" r="1.5"/><circle cx="165.9" cy="107.3" r="1.5"/><circle cx="173.4" cy="137.0" r="1.5"/><circle cx="131.2" cy="103.7" r="1.5"/><circle cx="129.3" cy="136.2" r="1.5"/><circle cx="92.8" cy="103.5" r="1.5"/><circle cx="102.3" cy="142.2" r="1.5"/><circle cx="62.8" cy="105.0" r="1.5"/><circle cx="65.9" cy="137.4" r="1.5"/><circle cx="25.3" cy="103.0" r="1.5"/><circle cx="29.6" cy="140.7" r="1.5"/><circle cx="195.2" cy="183.8" r="1.5"/><circle cx="200.0" cy="219.6" r="1.5"/><circle cx="159.6" cy="178.1" r="1.5"/><circle cx="164.4" cy="220.0" r="1.5"/><circle cx="128.5" cy="174.5" r="1.5"/><circle cx="129.9" cy="211.2" r="1.5"/><circle cx="94.6" cy="158.2" r="1.5"/><circle cx="98.2" cy="179.0" r="1.5"/><circle cx="98.2" cy="217.1" r="1.5"/><circle cx="61.2" cy="178.3" r="1.5"/><circle cx="57.4" cy="207.6" r="1.5"/><circle cx="27.4" cy="173.2" r="1.5"/><circle cx="20.0" cy="212.0" r="1.5"/></g><text x="20" y="245">patch 2: fitting UV support</text><foreignObject x="20" y="252" width="220" height="90"><div xmlns="http://www.w3.org/1999/xhtml" style="font:10px sans-serif;white-space:normal">idw_seed: coverage=0.036, degenerate=0.000, fold=0.000 | round_1: coverage=0.036, degenerate=0.000, fold=0.000 | round_2: coverage=0.036, degenerate=0.000, fold=0.000</div></foreignObject></g><g transform="translate(720,0)"><rect x="20" y="20" width="180" height="200" fill="none" stroke="#777"/><g fill="#24b7d9"><circle cx="23.1" cy="177.8" r="1.5"/><circle cx="20.0" cy="40.0" r="1.5"/><circle cx="48.8" cy="220.0" r="1.5"/><circle cx="58.1" cy="49.7" r="1.5"/><circle cx="93.8" cy="207.4" r="1.5"/><circle cx="92.3" cy="54.2" r="1.5"/><circle cx="132.2" cy="183.1" r="1.5"/><circle cx="125.3" cy="89.2" r="1.5"/><circle cx="160.5" cy="173.3" r="1.5"/><circle cx="169.1" cy="44.3" r="1.5"/><circle cx="199.6" cy="193.9" r="1.5"/><circle cx="200.0" cy="62.1" r="1.5"/></g><text x="20" y="245">patch 3: fitting UV support</text><foreignObject x="20" y="252" width="220" height="90"><div xmlns="http://www.w3.org/1999/xhtml" style="font:10px sans-serif;white-space:normal">idw_seed: coverage=0.012, degenerate=0.000, fold=0.047 | round_1: coverage=0.012, degenerate=0.000, fold=0.000 | round_2: coverage=0.012, degenerate=0.000, fold=0.000</div></foreignObject></g></svg>