<svg xmlns="http://www.w3.org/2000/svg" width="280" height="350" viewBox="0 0 280 350"><rect width="100%" height="100%" fill="white"/><g transform="translate(0,0)"><rect x="20" y="20" width="180" height="200" fill="none" stroke="#777"/><g fill="#24b7d9"><circle cx="125.0" cy="40.0" r="1.5"/><circle cx="152.9" cy="55.4" r="1.5"/><circle cx="175.2" cy="76.1" r="1.5"/><circle cx="197.1" cy="99.4" r="1.5"/><circle cx="83.0" cy="45.9" r="1.5"/><circle cx="109.5" cy="57.5" r="1.5"/><circle cx="132.0" cy="82.3" r="1.5"/><circle cx="161.6" cy="102.7" r="1.5"/><circle cx="181.0" cy="123.0" r="1.5"/><circle cx="200.0" cy="142.2" r="1.5"/><circle cx="63.7" cy="64.3" r="1.5"/><circle cx="89.0" cy="86.1" r="1.5"/><circle cx="113.0" cy="91.3" r="1.5"/><circle cx="157.5" cy="126.2" r="1.5"/><circle cx="162.5" cy="147.7" r="1.5"/><circle cx="188.9" cy="166.9" r="1.5"/><circle cx="42.9" cy="91.0" r="1.5"/><circle cx="70.0" cy="110.0" r="1.5"/><circle cx="78.3" cy="132.1" r="1.5"/><circle cx="119.6" cy="172.1" r="1.5"/><circle cx="143.1" cy="171.3" r="1.5"/><circle cx="171.0" cy="193.0" r="1.5"/><circle cx="27.7" cy="116.9" r="1.5"/><circle cx="48.6" cy="137.0" r="1.5"/><circle cx="71.4" cy="159.4" r="1.5"/><circle cx="100.9" cy="178.0" r="1.5"/><circle cx="123.3" cy="199.5" r="1.5"/><circle cx="145.7" cy="216.2" r="1.5"/><circle cx="20.0" cy="142.2" r="1.5"/><circle cx="35.1" cy="160.6" r="1.5"/><circle cx="54.1" cy="186.3" r="1.5"/><circle cx="76.1" cy="204.6" r="1.5"/><circle cx="108.2" cy="220.0" r="1.5"/></g><text x="20" y="245">patch 0: fitting UV support</text><foreignObject x="20" y="252" width="220" height="90"><div xmlns="http://www.w3.org/1999/xhtml" style="font:10px sans-serif;white-space:normal">idw_seed: coverage=0.032, degenerate=0.000, fold=0.026 | round_1: coverage=0.032, degenerate=0.000, fold=0.000 | round_2: coverage=0.032, degenerate=0.000, fold=0.000</div></foreignObject></g></svg>