ply
format ascii 1.0
element vertex 274
property float x
property float y
property float z
property float nx
property float ny
property float nz
property uchar red
property uchar green
property uchar blue
element face 422
property list uchar int vertex_indices
end_header
1.03895676 1.66801226 0.731954098 -0.0814818069 0.891179442 0.446273386 38 190 96
1.07323349 1.68523729 0.703538418 -0.0759432241 0.892327428 0.444954455 38 190 96
1.05155683 1.66299546 0.744131684 -0.0760390311 0.889597774 0.450370818 38 190 96
1.08583546 1.68017948 0.71569258 -0.0704443753 0.890816033 0.448870003 38 190 96
1.12012374 1.69714165 0.687126398 -0.0645535365 0.891883731 0.447634101 38 190 96
1.15442169 1.71388197 0.658433318 -0.0583654493 0.892797172 0.446661681 38 190 96
0.995630801 1.62289393 0.812777579 -0.0810976475 0.884986043 0.458500594 38 190 96
1.02989125 1.6404953 0.784577191 -0.0759835765 0.886540592 0.456368625 38 190 96
1.06416166 1.65786839 0.756246269 -0.0706088468 0.887960255 0.454467684 38 190 96
1.13273227 1.69193006 0.699192464 -0.0590767115 0.890386462 0.451355696 38 190 96
1.1670326 1.70861852 0.670469701 -0.0529195294 0.891387582 0.450141937 38 190 96
1.00823796 1.6177156 0.824862897 -0.0758419335 0.88321048 0.462803662 38 190 96
1.04249954 1.6352905 0.79664737 -0.0706297979 0.884800613 0.460585713 38 190 96
1.0767715 1.65263176 0.768298209 -0.0651926249 0.886267364 0.458563089 38 190 96
1.14534557 1.68661261 0.711198211 -0.0536435619 0.888822854 0.455100387 38 190 96
1.17964792 1.70325232 0.682447731 -0.0475323088 0.88990742 0.453657985 38 190 96
1.15796351 1.68118954 0.723143339 -0.0482546538 0.887193143 0.458867848 38 190 96
1.19226766 1.69778395 0.694366813 -0.0422045067 0.888356805 0.457210004 38 190 96
1.17058587 1.67566049 0.73502779 -0.0429119766 0.885498166 0.462657064 38 190 96
1.20489204 1.6922133 0.706227362 -0.0369370542 0.886736631 0.460796863 38 190 96
1.09298098 1.6133647 0.84429431 -0.0492213406 0.877355337 0.477310061 38 190 96
1.12725818 1.63058579 0.815876245 -0.0436819531 0.878944576 0.4749192 38 190 96
1.10561347 1.60760677 0.856047809 -0.0438749492 0.875373662 0.481451869 38 190 96
1.13989186 1.62479961 0.827613652 -0.0383463539 0.876977265 0.478999317 38 190 96
1.11825013 1.60175216 0.867745936 -0.0404144302 0.874239206 0.483810335 38 190 96
1.1525296 1.61891675 0.839295626 -0.0347743146 0.87579304 0.481432527 38 190 96
1.22112119 1.65249777 0.781966865 -0.023410419 0.878756523 0.476695925 38 190 96
1.2554332 1.66891384 0.753088236 -0.0176890027 0.880165637 0.474336863 38 190 96
1.28975618 1.68508029 0.724066794 -0.0119413622 0.881525755 0.471985012 38 190 96
1.23376429 1.64649665 0.793581307 -0.0203229636 0.877839863 0.478522807 38 190 96
1.26807773 1.66287947 0.764683604 -0.0144422231 0.879171073 0.476287216 38 190 96
1.30240214 1.67901218 0.735642791 -0.00854130089 0.880454957 0.474052876 38 190 96
1.07499766 1.55495083 0.947606444 -0.0471277498 0.87001276 0.490771592 38 190 96
1.10925829 1.57254958 0.919404507 -0.0411713161 0.8714872 0.488687098 38 190 96
1.14352977 1.58989763 0.891059101 -0.0351970904 0.872917473 0.486596584 38 190 96
1.17781222 1.60699511 0.862570405 -0.029205719 0.874303281 0.484500587 38 190 96
1.21210551 1.623842 0.83393842 -0.0231978633 0.875644028 0.482399613 38 190 96
1.24640965 1.64043856 0.805163145 -0.0171749294 0.876939893 0.480293006 38 190 96
1.28072464 1.65678453 0.776244283 -0.0111370664 0.878190458 0.478181481 38 190 96
1.31505084 1.67287993 0.74718225 -0.00508548459 0.879395247 0.476065189 38 190 96
1.08763707 1.54903209 0.959267914 -0.0447803102 0.869570911 0.491773427 38 190 96
1.12189925 1.56659186 0.931043863 -0.0386397801 0.870954096 0.489842743 38 190 96
1.15617251 1.58390105 0.902676165 -0.0324873626 0.872294605 0.487900317 38 190 96
1.19045663 1.60095918 0.874164999 -0.0263236985 0.873591781 0.485946894 38 190 96
1.22475171 1.61776686 0.845510423 -0.0201500356 0.874846101 0.483981669 38 190 96
1.25905752 1.6343236 0.816712201 -0.0139663536 0.876056612 0.482005894 38 190 96
1.29337454 1.65062928 0.787770391 -0.00777408713 0.877223492 0.480019361 38 190 96
1.32770216 1.66668415 0.758685112 -0.00157397927 0.878346443 0.47802192 38 190 96
1.10027802 1.54307532 0.970907629 -0.0423610918 0.869159877 0.492713571 38 190 96
1.13454223 1.56059229 0.942658901 -0.0360391103 0.870449066 0.490937442 38 190 96
1.16881704 1.57785845 0.914266765 -0.0297111478 0.87169677 0.489144027 38 190 96
1.2031033 1.59487391 0.885731041 -0.0233777482 0.872902989 0.487333387 38 190 96
1.23740017 1.61163783 0.857051492 -0.0170394592 0.874067366 0.485505909 38 190 96
1.27170789 1.62815118 0.828228593 -0.0106982877 0.875190139 0.483660758 38 190 96
1.30602682 1.64441347 0.799261868 -0.00435389439 0.876270473 0.48179999 38 190 96
1.34035647 1.66042471 0.770151615 0.0019924168 0.877308547 0.479922533 38 190 96
1.37469709 1.67618501 0.740897715 0.00833967794 0.878304303 0.478029191 38 190 96
1.4090488 1.6916945 0.711500168 0.01468735 0.879257381 0.476120532 38 190 96
1.11292076 1.53708005 0.982525349 -0.0398703478 0.868779123 0.493592083 38 190 96
1.14718699 1.55455041 0.954250038 -0.0333691575 0.869971693 0.491971254 38 190 96
1.1814642 1.57176995 0.925831139 -0.0268676933 0.871124089 0.490327418 38 190 96
1.21575236 1.58873856 0.897268653 -0.0203665271 0.872236192 0.488660663 38 190 96
1.2500509 1.6054554 0.868562222 -0.0138672497 0.873308241 0.486970633 38 190 96
1.284361 1.62192214 0.839712441 -0.00737007381 0.8743397 0.485258341 38 190 96
1.31868172 1.6381371 0.810718775 -0.000876150676 0.875330687 0.483524054 38 190 96
1.35301352 1.65410137 0.78158164 0.00561406463 0.876281023 0.481767565 38 190 96
1.38735616 1.66981483 0.752300858 0.0120988507 0.877190888 0.47998932 38 190 96
1.4217099 1.68527687 0.72287637 0.0185780507 0.878059864 0.478190124 38 190 96
1.09130776 1.51337647 1.022282 -0.0439911 0.867296994 0.495843381 38 190 96
1.12556517 1.53104687 0.994121373 -0.0373083502 0.868428707 0.494408429 38 190 96
1.15983367 1.54846632 0.965816915 -0.0306303296 0.869521618 0.492944032 38 190 96
1.19411302 1.56563532 0.937369049 -0.0239575952 0.870575905 0.491450459 38 190 96
1.22840309 1.58255291 0.908777475 -0.0172910951 0.871591151 0.489928395 38 190 96
1.26270425 1.5992198 0.880042374 -0.0106327971 0.872568011 0.488376826 38 190 96
1.29701614 1.61563551 0.851163507 -0.00398208015 0.873505533 0.486797869 38 190 96
1.33133936 1.63180053 0.82214123 0.00265905098 0.874404371 0.485190541 38 190 96
1.36567342 1.6477145 0.792975247 0.00929015409 0.875264347 0.483555675 38 190 96
1.4000181 1.6633774 0.763665617 0.015909953 0.876085281 0.481893599 38 190 96
1.43437374 1.67878926 0.734212279 0.022517629 0.876867473 0.480204582 38 190 96
1.10395122 1.50735986 1.03388774 -0.0415382944 0.867079854 0.496434391 38 190 96
1.13821125 1.52497554 1.00569546 -0.0346749946 0.868108153 0.495162487 38 190 96
1.17248201 1.54234016 0.977359712 -0.0278221667 0.869098902 0.493855178 38 190 96
1.20676374 1.55945444 0.948880553 -0.0209807958 0.870052278 0.492512763 38 190 96
1.2410562 1.57631779 0.920257866 -0.0141514093 0.870967984 0.491136044 38 190 96
1.27535987 1.59293044 0.891491592 -0.00733584911 0.871846199 0.489724755 38 190 96
1.30967426 1.60929227 0.862582028 -0.000534763152 0.87268728 0.488279283 38 190 96
1.34399962 1.6254034 0.833528876 0.00625132443 0.873490989 0.486800194 38 190 96
1.37833571 1.64126372 0.804332137 0.0130206915 0.874257565 0.485287696 38 190 96
1.41268313 1.65687346 0.774992049 0.0197730511 0.874987364 0.48374176 38 190 96
1.44704092 1.67223203 0.745508373 0.0265068095 0.87567997 0.482163787 38 190 96
1.11659646 1.50130975 1.04547393 -0.0390120149 0.86689496 0.4969621 38 190 96
1.15085912 1.51886606 1.01724792 -0.0319702849 0.867817044 0.495854229 38 190 96
1.18513227 1.53617191 0.988878429 -0.0249449518 0.868702829 0.494704992 38 190 96
1.21941674 1.55322778 0.960365832 -0.0179369226 0.869552433 0.493514776 38 190 96
1.25371182 1.57003272 0.931709826 -0.0109474482 0.870365679 0.492284179 38 190 96
1.28801787 1.58658767 0.90291059 -0.00397744635 0.871143103 0.491013199 38 190 96
1.32233465 1.6028918 0.873967946 0.00297219935 0.871884704 0.489702284 38 190 96
1.35666263 1.61894584 0.844882071 0.00989999529 0.872590601 0.488352031 38 190 96
1.39100134 1.63474929 0.815652847 0.0168054067 0.873261273 0.486962318 38 190 96
1.42535102 1.65030241 0.786280394 0.0236874856 0.87389648 0.485534579 38 190 96
1.45971143 1.66560483 0.756764412 0.0305450615 0.874496996 0.484068185 38 190 96
1.12924314 1.49522531 1.05704069 -0.0364122204 0.866741896 0.497426033 38 190 96
1.1635083 1.51271832 1.02877831 -0.0291944779 0.86755532 0.496483088 38 190 96
1.1977843 1.52996147 1.00037289 -0.0219993945 0.868333399 0.495492756 38 190 96
1.2320714 1.54695487 0.971824706 -0.0148271071 0.86907649 0.494455367 38 190 96
1.26636922 1.56369793 0.943133116 -0.00767945731 0.869784594 0.493371844 38 190 96
1.30067801 1.58019114 0.914298654 -0.000557642081 0.870458245 0.492241919 38 190 96
1.33499753 1.59643435 0.88532114 0.0065378584 0.871097386 0.491066724 38 190 96
1.36932802 1.61242771 0.856200516 0.0136051904 0.87170285 0.489845872 38 190 96
1.40366936 1.62817109 0.82693696 0.0206442717 0.872274756 0.488580137 38 190 96
1.43802166 1.64366436 0.797530234 0.0276533626 0.872813046 0.487270713 38 190 96
1.47238481 1.65890789 0.767980576 0.0346313342 0.873318672 0.485916913 38 190 96
1.17615938 1.50653267 1.04028702 -0.0263477731 0.867322385 0.497048944 38 190 96
1.21043825 1.52370858 1.01184332 -0.018984573 0.867990196 0.496218264 38 190 96
1.24472821 1.54063547 0.983256996 -0.0116508827 0.868623972 0.495334864 38 190 96
1.27902901 1.5573132 0.954527974 -0.00434732996 0.869223952 0.494399458 38 190 96
1.31334043 1.5737412 0.92565614 0.00292409677 0.86979109 0.493411452 38 190 96
1.34766281 1.58991969 0.896641612 0.0101624839 0.870325625 0.492371798 38 190 96
1.38199604 1.60584927 0.86748451 0.0173674468 0.870827556 0.491281688 38 190 96
1.41634023 1.6215291 0.838184536 0.0245362762 0.871297717 0.490141034 38 190 96
1.45069516 1.63695931 0.808741808 0.0316696651 0.871736765 0.488949925 38 190 96
1.48506105 1.65214074 0.779156506 0.038765613 0.87214458 0.487709999 38 190 96
1.18881202 1.50030863 1.05177391 -0.0234296061 0.867117763 0.497551858 38 190 96
1.22309411 1.51741385 1.02328956 -0.0159008838 0.867672384 0.496882051 38 190 96
1.25738704 1.53427052 0.994663119 -0.00840778183 0.868194282 0.496153206 38 190 96
1.29169071 1.55087829 0.965894103 -0.00095146551 0.868683696 0.495366186 38 190 96
1.32600534 1.56723762 0.93698287 0.00646654051 0.869141638 0.494520932 38 190 96
1.36033058 1.58334816 0.90792954 0.0138461869 0.869568229 0.493618637 38 190 96
1.39466679 1.59921002 0.878733695 0.0211843029 0.86996448 0.492659122 38 190 96
1.42901385 1.61482322 0.849395573 0.0284817182 0.870330513 0.491643786 38 190 96
1.46337163 1.63018763 0.819915175 0.0357367322 0.870667219 0.490572631 38 190 96
1.16719186 1.47676837 1.09162426 -0.0281721987 0.866469622 0.498434216 38 190 96
1.20146644 1.49404669 1.06323898 -0.0204403214 0.866941035 0.497991323 38 190 96
1.23575175 1.51107681 1.03471172 -0.0127487984 0.867380142 0.497482836 38 190 96
1.2700479 1.52785921 1.00604272 -0.0050986982 0.867787302 0.496909618 38 190 96
1.30435467 1.54439366 0.977231801 0.00250764051 0.868163526 0.496271819 38 190 96
1.33867252 1.56068075 0.948279202 0.0100705586 0.868509293 0.495570481 38 190 96
1.3730011 1.57671964 0.919184864 0.0175874345 0.868825614 0.494805813 38 190 96
1.40734029 1.5925107 0.889948487 0.0250577945 0.869112968 0.4939785 38 190 96
1.44169044 1.60805392 0.860570312 0.0324799232 0.869372487 0.493088692 38 190 96
1.51042306 1.63839698 0.801388621 0.047177352 0.86980933 0.491127402 38 190 96
1.54480505 1.65319645 0.771585047 0.0544499122 0.869988263 0.490056664 38 190 96
1.17984426 1.47054827 1.10311317 -0.0252789445 0.8664397 0.498641402 38 190 96
1.21412241 1.48774636 1.074682 -0.0173805337 0.866791964 0.498366922 38 190 96
1.24841118 1.50469756 1.04610968 -0.0095283594 0.867112577 0.498021096 38 190 96
1.28271067 1.52140212 1.01739609 -0.00172402163 0.867402494 0.497604221 38 190 96
1.31702101 1.53785956 0.988541126 0.00603125896 0.867662668 0.497116894 38 190 96
1.35134196 1.55406988 0.959544718 0.0137349581 0.867893994 0.49655953 38 190 96
1.38567376 1.57003367 0.930407286 0.0213868897 0.868097365 0.495932996 38 190 96
1.42001629 1.58575058 0.901128531 0.0289865993 0.868273258 0.495238662 38 190 96
1.45436943 1.60122061 0.871708453 0.0365309939 0.868423104 0.494476169 38 190 96
1.48873353 1.61644387 0.842147171 0.0440206081 0.86854732 0.493647337 38 190 96
1.52310836 1.63142002 0.812444508 0.0514537059 0.868647397 0.492751688 38 190 96
1.55749369 1.64614916 0.78260076 0.0588294081 0.868723571 0.49179104 38 190 96
1.19249845 1.46429408 1.11458266 -0.0223122779 0.866439342 0.498783559 38 190 96
1.22678006 1.48140812 1.08610344 -0.0142493639 0.866669714 0.498678803 38 190 96
1.2610724 1.49827623 1.05748355 -0.00623954553 0.866869688 0.498495817 38 190 96
1.29537547 1.51489842 1.02872288 0.00171670597 0.867039442 0.498236507 38 190 96
1.32968926 1.53127527 0.999821663 0.0096163284 0.867181301 0.497899622 38 190 96
1.36401379 1.54740596 0.970779777 0.0174600296 0.867295146 0.497488111 38 190 96
1.39834905 1.56329107 0.941597223 0.0252446849 0.867382526 0.49700129 38 190 96
1.43269491 1.57893038 0.912274063 0.0329702832 0.867444754 0.496439964 38 190 96
1.46705163 1.59432387 0.882810235 0.0406345949 0.867482364 0.495805502 38 190 96
1.50141883 1.60947132 0.853205621 0.0482375659 0.867496729 0.495098531 38 190 96
1.53579688 1.62437332 0.823460519 0.0557768866 0.86748904 0.494319379 38 190 96
1.20515382 1.45800591 1.12603283 -0.0192726906 0.866468012 0.498860419 38 190 96
1.23943949 1.47503161 1.09750307 -0.0110480171 0.866574049 0.498926103 38 190 96
1.27373564 1.49181271 1.06883335 -0.00288224709 0.866650343 0.498907715 38 190 96
1.30804253 1.50834918 1.04002357 0.00522314291 0.866697669 0.498806328 38 190 96
1.3423599 1.52464104 1.01107383 0.0132658547 0.866718173 0.498621672 38 190 96
1.37668812 1.5406884 0.981984198 0.0212451536 0.866712451 0.498355448 38 190 96
1.41102695 1.55649126 0.952754617 0.0291599222 0.866681635 0.498008698 38 190 96
1.4453764 1.57204926 0.923385024 0.0370086394 0.866627097 0.497581989 38 190 96
1.47973633 1.587363 0.89387542 0.0447901227 0.866550088 0.497076124 38 190 96
1.51410699 1.60243201 0.864225984 0.0525026955 0.866452217 0.496491641 38 190 96
1.5484885 1.61725652 0.834436536 0.0601458177 0.866334438 0.495829791 38 190 96
1.21781075 1.45168304 1.13746309 -0.0161591098 0.866452217 0.498998374 38 190 96
1.25210023 1.46862066 1.10888302 -0.00825026073 0.866665006 0.498822391 38 190 96
1.28640008 1.48531556 1.0801636 -0.000455918576 0.866880417 0.498515844 38 190 96
1.32071066 1.50176752 1.05130565 0.00722197955 0.86710149 0.498079121 38 190 96
1.35503197 1.517977 1.02230871 0.0147831477 0.867329478 0.497514933 38 190 96
1.38936341 1.5339433 0.993172765 0.0222261287 0.867566764 0.496823788 38 190 96
1.42370558 1.54966712 0.963897943 0.0295497142 0.867815912 0.496006399 38 190 96
1.45805848 1.565148 0.934484303 0.0367534719 0.868077874 0.49506557 38 190 96
1.49242175 1.58038628 0.904931664 0.0438365713 0.868355036 0.494002074 38 190 96
1.52679574 1.59538186 0.875239968 0.0507981442 0.868648946 0.492816955 38 190 96
1.26476228 1.46218228 1.12024689 -0.00568927359 0.866711915 0.498776585 38 190 96
1.29906535 1.47880065 1.09148407 0.00160500826 0.867111027 0.498112321 38 190 96
1.33337939 1.49517965 1.06258428 0.0087178573 0.867555737 0.49726364 38 190 96
1.36770344 1.51131916 1.0335474 0.0156490244 0.868048251 0.496233046 38 190 96
1.4020381 1.52721906 1.00437343 0.0223978031 0.868591845 0.49502176 38 190 96
1.43638289 1.54287946 0.975062251 0.0289629512 0.869188488 0.493631899 38 190 96
1.47073829 1.55830038 0.945614159 0.0353448465 0.869840622 0.492065132 38 190 96
1.50510406 1.57348192 0.916028917 0.0415437073 0.870549858 0.490323335 38 190 96
1.53948057 1.58842409 0.886306763 0.0475582406 0.871318638 0.488407671 38 190 96
1.57386708 1.60312641 0.856447458 0.0533886179 0.872148693 0.486319184 38 190 96
1.3117317 1.47226846 1.10279465 0.00347878225 0.867248178 0.497863919 38 190 96
1.34604812 1.48858571 1.07385933 0.0100011714 0.867906749 0.496626437 38 190 96
1.38037455 1.50466835 1.04478991 0.0162765998 0.868653774 0.495152116 38 190 96
1.41471136 1.52051604 1.01558602 0.0223055594 0.869491994 0.493443131 38 190 96
1.44905841 1.53612924 0.986247838 0.0280872211 0.870423615 0.491501719 38 190 96
1.48341584 1.55150783 0.956775427 0.0336218849 0.871451199 0.489328504 38 190 96
1.51778316 1.56665146 0.927168667 0.0389098935 0.872575879 0.486926436 38 190 96
1.55216074 1.58156025 0.897427499 0.0439502373 0.873799801 0.484295547 38 190 96
1.58654892 1.5962348 0.867552161 0.0487440042 0.875123918 0.481437594 38 190 96
1.25579143 1.43249869 1.17163038 -0.0075797094 0.865938306 0.5000934 38 190 96
1.29008996 1.44922292 1.14292812 -0.00105170941 0.866555095 0.49908036 38 190 96
1.32439852 1.46571875 1.11409509 0.00516545866 0.867292941 0.497771204 38 190 96
1.3587172 1.48198617 1.08513129 0.0110717053 0.868156016 0.496167898 38 190 96
1.39304566 1.49802482 1.05603671 0.0166663472 0.869147062 0.494272888 38 190 96
1.42738414 1.51383495 1.02681124 0.0219503324 0.870268345 0.492088497 38 190 96
1.46173239 1.52941692 0.997455299 0.0269226227 0.871522367 0.489616036 38 190 96
1.49609089 1.54477036 0.967968464 0.031584058 0.872910678 0.48685655 38 190 96
1.53045928 1.55989492 0.938350856 0.0359345749 0.874433935 0.483811975 38 190 96
1.56483734 1.57479119 0.908602417 0.0399741493 0.876093149 0.480481923 38 190 96
1.26845455 1.42603207 1.18297827 -0.00499132369 0.865620255 0.500676274 38 190 96
1.30275559 1.44270217 1.15424502 0.00102498359 0.866352975 0.499431133 38 190 96
1.33706605 1.45915163 1.12538552 0.00666540349 0.867246509 0.497834355 38 190 96
1.37138641 1.47538042 1.09639978 0.0119300773 0.868304074 0.495888859 38 190 96
1.40571618 1.49138832 1.06728733 0.0168185346 0.86952877 0.493595779 38 190 96
1.44005573 1.50717556 1.03804898 0.0213318057 0.870922267 0.490957588 38 190 96
1.47440481 1.52274203 1.00868404 0.025469128 0.872485936 0.487975061 38 190 96
1.50876355 1.53808773 0.979192853 0.0292315539 0.874219894 0.48464939 38 190 96
1.54313183 1.55321252 0.949575305 0.0326186717 0.87612468 0.48097977 38 190 96
1.57750964 1.56811666 0.919831395 0.0356304422 0.878198624 0.476967067 38 190 96
1.3154223 1.43615401 1.16554618 0.00294055161 0.866069436 0.499915123 38 190 96
1.34973443 1.45256734 1.13666606 0.0079785483 0.867109239 0.498054266 38 190 96
1.38405585 1.46876907 1.1076647 0.0125760883 0.868351817 0.4957892 38 190 96
1.4183867 1.48475909 1.07854235 0.0167331714 0.869799674 0.493121296 38 190 96
1.4527266 1.50053763 1.04929888 0.0204494465 0.871453881 0.490050972 38 190 96
1.48707557 1.51610482 1.01993442 0.0237265602 0.873314023 0.486579597 38 190 96
1.52143371 1.53146017 0.990448773 0.0265636146 0.875379264 0.482706517 38 190 96
1.55580127 1.54660404 0.960842073 0.0289613008 0.877647519 0.478430808 38 190 96
1.59017766 1.56153619 0.931114316 0.0309191681 0.880115628 0.473751456 38 190 96
1.32809043 1.42957854 1.17683196 0.00469531352 0.865704834 0.500532925 38 190 96
1.36240375 1.44596565 1.1479367 0.00910513662 0.86688143 0.498431295 38 190 96
1.39672577 1.46215153 1.11892641 0.0130100399 0.868299484 0.495869815 38 190 96
1.43105674 1.4781369 1.08980119 0.0164100807 0.86995995 0.492849201 38 190 96
1.46539593 1.49392128 1.06056106 0.0193048846 0.871862948 0.489369333 38 190 96
1.49974453 1.50950503 1.03120613 0.0216946192 0.874006748 0.485429287 38 190 96
1.53410149 1.52488768 1.00173604 0.0235800277 0.876388133 0.481027991 38 190 96
1.5684675 1.54006958 0.97215122 0.0249617342 0.879001975 0.476164281 38 190 96
1.60284197 1.55505085 0.942451417 0.0258388966 0.881843209 0.470834315 38 190 96
1.34075952 1.42297554 1.18810189 0.00628807303 0.865260303 0.501283467 38 190 96
1.37507379 1.43934631 1.15919745 0.0100452946 0.866563857 0.498965085 38 190 96
1.40939593 1.4555285 1.13018477 0.0132322945 0.868147135 0.496130496 38 190 96
1.44372642 1.47152185 1.10106421 0.0158490073 0.870009959 0.492779404 38 190 96
1.47806525 1.48732674 1.07183599 0.0178957358 0.872150123 0.488910854 38 190 96
1.51241195 1.5029428 1.04249942 0.0193734318 0.874563515 0.484523743 38 190 96
1.546767 1.51837027 1.01305509 0.0202814396 0.877245009 0.479614198 38 190 96
1.5811305 1.53360927 0.983502746 0.020620415 0.880186737 0.474179357 38 190 96
1.615502 1.54865956 0.953842521 0.0203904491 0.8833794 0.46821472 38 190 96
1.35343003 1.41634512 1.19935632 0.0077199908 0.864735365 0.502168477 38 190 96
1.38774443 1.43270969 1.17044818 0.0107984645 0.866156518 0.499656051 38 190 96
1.42206621 1.44889951 1.1414398 0.0132412026 0.867895305 0.496570677 38 190 96
1.45639563 1.46491396 1.11233139 0.0150498636 0.869949043 0.492911875 38 190 96
1.49073291 1.48075354 1.08312285 0.0162232425 0.872314095 0.488676578 38 190 96
1.5250777 1.49641848 1.05381429 0.0167628601 0.87498343 0.483862668 38 190 96
1.55943012 1.51190805 1.02440548 0.0166668314 0.877949059 0.478463858 38 190 96
1.59379017 1.52722275 0.994896591 0.0159361772 0.881199658 0.472475618 38 190 96
1.62815785 1.54236257 0.965287566 0.0145714935 0.884721816 0.4658916 38 190 96
1.3661015 1.4096874 1.21059477 0.00899100676 0.864130557 0.503187358 38 190 96
1.40041578 1.42605591 1.18168902 0.0113653829 0.865659475 0.500504255 38 190 96
1.43473697 1.44226456 1.1526916 0.0130390292 0.867542982 0.49719125 38 190 96
1.46906483 1.45831323 1.12360263 0.0140130287 0.869776666 0.493246526 38 190 96
1.50339997 1.47420239 1.09442246 0.0142873861 0.872353613 0.488666564 38 190 96
1.53774166 1.48993146 1.06515062 0.0138615305 0.875265002 0.483444989 38 190 96
1.41308808 1.41938448 1.19291973 0.011745574 0.865072668 0.50150913 38 190 96
1.44740784 1.43562376 1.16393983 0.0126249082 0.867089927 0.497991592 38 190 96
1.4817338 1.45171976 1.13487804 0.0127387252 0.869491816 0.493782967 38 190 96
1.51606596 1.46767259 1.10573435 0.0120872725 0.872268379 0.488878101 38 190 96
1.55040443 1.48348236 1.07650864 0.0106706833 0.875406444 0.483269691 38 190 96
1.52873087 1.46116459 1.11705852 0.00962343533 0.872055531 0.489312351 38 190 96
1.56306529 1.47707081 1.08788812 0.00718938839 0.875405014 0.483336717 38 190 96
3 0 2 3
3 0 3 1
3 4 9 10
3 4 10 5
3 6 11 12
3 6 12 7
3 7 12 13
3 7 13 8
3 9 14 15
3 9 15 10
3 14 16 17
3 14 17 15
3 16 18 19
3 16 19 17
3 20 22 23
3 20 23 21
3 22 24 25
3 22 25 23
3 26 29 30
3 26 30 27
3 27 30 31
3 27 31 28
3 29 37 38
3 29 38 30
3 30 38 39
3 30 39 31
3 32 40 41
3 32 41 33
3 33 41 42
3 33 42 34
3 34 42 43
3 34 43 35
3 35 43 44
3 35 44 36
3 36 44 45
3 36 45 37
3 37 45 46
3 37 46 38
3 38 46 47
3 38 47 39
3 40 48 49
3 40 49 41
3 41 49 50
3 41 50 42
3 42 50 51
3 42 51 43
3 43 51 52
3 43 52 44
3 44 52 53
3 44 53 45
3 45 53 54
3 45 54 46
3 46 54 55
3 46 55 47
3 48 58 59
3 48 59 49
3 49 59 60
3 49 60 50
3 50 60 61
3 50 61 51
3 51 61 62
3 51 62 52
3 52 62 63
3 52 63 53
3 53 63 64
3 53 64 54
3 54 64 65
3 54 65 55
3 55 65 66
3 55 66 56
3 56 66 67
3 56 67 57
3 58 69 70
3 58 70 59
3 59 70 71
3 59 71 60
3 60 71 72
3 60 72 61
3 61 72 73
3 61 73 62
3 62 73 74
3 62 74 63
3 63 74 75
3 63 75 64
3 64 75 76
3 64 76 65
3 65 76 77
3 65 77 66
3 66 77 78
3 66 78 67
3 68 79 80
3 68 80 69
3 69 80 81
3 69 81 70
3 70 81 82
3 70 82 71
3 71 82 83
3 71 83 72
3 72 83 84
3 72 84 73
3 73 84 85
3 73 85 74
3 74 85 86
3 74 86 75
3 75 86 87
3 75 87 76
3 76 87 88
3 76 88 77
3 77 88 89
3 77 89 78
3 79 90 91
3 79 91 80
3 80 91 92
3 80 92 81
3 81 92 93
3 81 93 82
3 82 93 94
3 82 94 83
3 83 94 95
3 83 95 84
3 84 95 96
3 84 96 85
3 85 96 97
3 85 97 86
3 86 97 98
3 86 98 87
3 87 98 99
3 87 99 88
3 88 99 100
3 88 100 89
3 90 101 102
3 90 102 91
3 91 102 103
3 91 103 92
3 92 103 104
3 92 104 93
3 93 104 105
3 93 105 94
3 94 105 106
3 94 106 95
3 95 106 107
3 95 107 96
3 96 107 108
3 96 108 97
3 97 108 109
3 97 109 98
3 98 109 110
3 98 110 99
3 99 110 111
3 99 111 100
3 102 112 113
3 102 113 103
3 103 113 114
3 103 114 104
3 104 114 115
3 104 115 105
3 105 115 116
3 105 116 106
3 106 116 117
3 106 117 107
3 107 117 118
3 107 118 108
3 108 118 119
3 108 119 109
3 109 119 120
3 109 120 110
3 110 120 121
3 110 121 111
3 112 122 123
3 112 123 113
3 113 123 124
3 113 124 114
3 114 124 125
3 114 125 115
3 115 125 126
3 115 126 116
3 116 126 127
3 116 127 117
3 117 127 128
3 117 128 118
3 118 128 129
3 118 129 119
3 119 129 130
3 119 130 120
3 122 132 133
3 122 133 123
3 123 133 134
3 123 134 124
3 124 134 135
3 124 135 125
3 125 135 136
3 125 136 126
3 126 136 137
3 126 137 127
3 127 137 138
3 127 138 128
3 128 138 139
3 128 139 129
3 131 142 143
3 131 143 132
3 132 143 144
3 132 144 133
3 133 144 145
3 133 145 134
3 134 145 146
3 134 146 135
3 135 146 147
3 135 147 136
3 136 147 148
3 136 148 137
3 137 148 149
3 137 149 138
3 138 149 150
3 138 150 139
3 140 152 153
3 140 153 141
3 142 154 155
3 142 155 143
3 143 155 156
3 143 156 144
3 144 156 157
3 144 157 145
3 145 157 158
3 145 158 146
3 146 158 159
3 146 159 147
3 147 159 160
3 147 160 148
3 148 160 161
3 148 161 149
3 149 161 162
3 149 162 150
3 150 162 163
3 150 163 151
3 151 163 164
3 151 164 152
3 154 165 166
3 154 166 155
3 155 166 167
3 155 167 156
3 156 167 168
3 156 168 157
3 157 168 169
3 157 169 158
3 158 169 170
3 158 170 159
3 159 170 171
3 159 171 160
3 160 171 172
3 160 172 161
3 161 172 173
3 161 173 162
3 162 173 174
3 162 174 163
3 163 174 175
3 163 175 164
3 165 176 177
3 165 177 166
3 166 177 178
3 166 178 167
3 167 178 179
3 167 179 168
3 168 179 180
3 168 180 169
3 169 180 181
3 169 181 170
3 170 181 182
3 170 182 171
3 171 182 183
3 171 183 172
3 172 183 184
3 172 184 173
3 173 184 185
3 173 185 174
3 177 186 187
3 177 187 178
3 178 187 188
3 178 188 179
3 179 188 189
3 179 189 180
3 180 189 190
3 180 190 181
3 181 190 191
3 181 191 182
3 182 191 192
3 182 192 183
3 183 192 193
3 183 193 184
3 184 193 194
3 184 194 185
3 187 196 197
3 187 197 188
3 188 197 198
3 188 198 189
3 189 198 199
3 189 199 190
3 190 199 200
3 190 200 191
3 191 200 201
3 191 201 192
3 192 201 202
3 192 202 193
3 193 202 203
3 193 203 194
3 194 203 204
3 194 204 195
3 196 207 208
3 196 208 197
3 197 208 209
3 197 209 198
3 198 209 210
3 198 210 199
3 199 210 211
3 199 211 200
3 200 211 212
3 200 212 201
3 201 212 213
3 201 213 202
3 202 213 214
3 202 214 203
3 205 215 216
3 205 216 206
3 206 216 217
3 206 217 207
3 207 217 218
3 207 218 208
3 208 218 219
3 208 219 209
3 209 219 220
3 209 220 210
3 210 220 221
3 210 221 211
3 211 221 222
3 211 222 212
3 212 222 223
3 212 223 213
3 213 223 224
3 213 224 214
3 216 225 226
3 216 226 217
3 217 226 227
3 217 227 218
3 218 227 228
3 218 228 219
3 219 228 229
3 219 229 220
3 220 229 230
3 220 230 221
3 221 230 231
3 221 231 222
3 222 231 232
3 222 232 223
3 223 232 233
3 223 233 224
3 225 234 235
3 225 235 226
3 226 235 236
3 226 236 227
3 227 236 237
3 227 237 228
3 228 237 238
3 228 238 229
3 229 238 239
3 229 239 230
3 230 239 240
3 230 240 231
3 231 240 241
3 231 241 232
3 232 241 242
3 232 242 233
3 234 243 244
3 234 244 235
3 235 244 245
3 235 245 236
3 236 245 246
3 236 246 237
3 237 246 247
3 237 247 238
3 238 247 248
3 238 248 239
3 239 248 249
3 239 249 240
3 240 249 250
3 240 250 241
3 241 250 251
3 241 251 242
3 243 252 253
3 243 253 244
3 244 253 254
3 244 254 245
3 245 254 255
3 245 255 246
3 246 255 256
3 246 256 247
3 247 256 257
3 247 257 248
3 248 257 258
3 248 258 249
3 249 258 259
3 249 259 250
3 250 259 260
3 250 260 251
3 252 261 262
3 252 262 253
3 253 262 263
3 253 263 254
3 254 263 264
3 254 264 255
3 255 264 265
3 255 265 256
3 256 265 266
3 256 266 257
3 262 267 268
3 262 268 263
3 263 268 269
3 263 269 264
3 264 269 270
3 264 270 265
3 265 270 271
3 265 271 266
3 270 272 273
3 270 273 271
