<svg xmlns="http://www.w3.org/2000/svg" width="280" height="350" viewBox="0 0 280 350"><rect width="100%" height="100%" fill="white"/><g transform="translate(0,0)"><rect x="20" y="20" width="180" height="200" fill="none" stroke="#777"/><g fill="#24b7d9"><circle cx="80.8" cy="40.0" r="1.5"/><circle cx="105.6" cy="52.7" r="1.5"/><circle cx="129.6" cy="64.1" r="1.5"/><circle cx="148.9" cy="76.1" r="1.5"/><circle cx="177.4" cy="88.8" r="1.5"/><circle cx="200.0" cy="100.6" r="1.5"/><circle cx="70.4" cy="65.2" r="1.5"/><circle cx="96.2" cy="75.8" r="1.5"/><circle cx="119.8" cy="88.4" r="1.5"/><circle cx="142.1" cy="102.9" r="1.5"/><circle cx="160.4" cy="114.9" r="1.5"/><circle cx="189.2" cy="124.2" r="1.5"/><circle cx="57.1" cy="88.2" r="1.5"/><circle cx="81.4" cy="99.1" r="1.5"/><circle cx="103.5" cy="111.2" r="1.5"/><circle cx="126.8" cy="124.8" r="1.5"/><circle cx="151.8" cy="138.0" r="1.5"/><circle cx="173.2" cy="147.2" r="1.5"/><circle cx="46.9" cy="112.8" r="1.5"/><circle cx="68.1" cy="118.4" r="1.5"/><circle cx="92.6" cy="134.2" r="1.5"/><circle cx="114.5" cy="147.7" r="1.5"/><circle cx="137.9" cy="159.2" r="1.5"/><circle cx="164.8" cy="171.5" r="1.5"/><circle cx="33.5" cy="134.0" r="1.5"/><circle cx="57.4" cy="147.5" r="1.5"/><circle cx="80.4" cy="158.7" r="1.5"/><circle cx="103.1" cy="168.5" r="1.5"/><circle cx="128.8" cy="184.4" r="1.5"/><circle cx="153.5" cy="195.6" r="1.5"/><circle cx="20.0" cy="157.1" r="1.5"/><circle cx="41.1" cy="173.2" r="1.5"/><circle cx="67.5" cy="182.4" r="1.5"/><circle cx="92.8" cy="193.7" r="1.5"/><circle cx="114.8" cy="210.4" r="1.5"/><circle cx="139.3" cy="220.0" r="1.5"/></g><text x="20" y="245">patch 0: fitting UV support</text><foreignObject x="20" y="252" width="220" height="90"><div xmlns="http://www.w3.org/1999/xhtml" style="font:10px sans-serif;white-space:normal">idw_seed: coverage=0.035, degenerate=0.000, fold=0.014 | round_1: coverage=0.035, degenerate=0.000, fold=0.000 | round_2: coverage=0.035, degenerate=0.000, fold=0.000</div></foreignObject></g></svg>