<svg xmlns="http://www.w3.org/2000/svg" width="280" height="350" viewBox="0 0 280 350"><rect width="100%" height="100%" fill="white"/><g transform="translate(0,0)"><rect x="20" y="20" width="180" height="200" fill="none" stroke="#777"/><g fill="#24b7d9"><circle cx="20.0" cy="40.0" r="1.5"/><circle cx="36.3" cy="74.1" r="1.5"/><circle cx="56.2" cy="45.8" r="1.5"/><circle cx="56.1" cy="107.7" r="1.5"/><circle cx="73.8" cy="70.4" r="1.5"/><circle cx="92.4" cy="43.8" r="1.5"/><circle cx="76.6" cy="143.1" r="1.5"/><circle cx="90.8" cy="104.7" r="1.5"/><circle cx="108.8" cy="74.2" r="1.5"/><circle cx="127.4" cy="46.8" r="1.5"/><circle cx="88.9" cy="182.7" r="1.5"/><circle cx="108.4" cy="146.5" r="1.5"/><circle cx="126.5" cy="106.6" r="1.5"/><circle cx="144.0" cy="67.2" r="1.5"/><circle cx="161.4" cy="43.3" r="1.5"/><circle cx="106.5" cy="220.0" r="1.5"/><circle cx="126.8" cy="187.5" r="1.5"/><circle cx="144.5" cy="149.0" r="1.5"/><circle cx="159.6" cy="108.3" r="1.5"/><circle cx="180.0" cy="71.4" r="1.5"/><circle cx="200.0" cy="46.4" r="1.5"/></g><text x="20" y="245">patch 0: fitting UV support</text><foreignObject x="20" y="252" width="220" height="90"><div xmlns="http://www.w3.org/1999/xhtml" style="font:10px sans-serif;white-space:normal">idw_seed: coverage=0.021, degenerate=0.000, fold=0.151 | round_1: coverage=0.021, degenerate=0.000, fold=0.262 | round_2: coverage=0.021, degenerate=0.000, fold=0.262</div></foreignObject></g></svg>