<svg xmlns="http://www.w3.org/2000/svg" width="280" height="350" viewBox="0 0 280 350"><rect width="100%" height="100%" fill="white"/><g transform="translate(0,0)"><rect x="20" y="20" width="180" height="200" fill="none" stroke="#777"/><g fill="#24b7d9"><circle cx="41.8" cy="89.5" r="1.5"/><circle cx="30.9" cy="82.3" r="1.5"/><circle cx="24.7" cy="69.5" r="1.5"/><circle cx="41.2" cy="114.5" r="1.5"/><circle cx="33.2" cy="105.0" r="1.5"/><circle cx="20.0" cy="95.6" r="1.5"/><circle cx="38.6" cy="133.9" r="1.5"/><circle cx="25.9" cy="122.9" r="1.5"/><circle cx="44.5" cy="155.9" r="1.5"/><circle cx="56.4" cy="177.6" r="1.5"/><circle cx="47.6" cy="191.0" r="1.5"/><circle cx="42.4" cy="198.9" r="1.5"/><circle cx="58.6" cy="198.8" r="1.5"/><circle cx="53.7" cy="208.6" r="1.5"/><circle cx="58.3" cy="220.0" r="1.5"/><circle cx="54.8" cy="81.6" r="1.5"/><circle cx="59.5" cy="64.5" r="1.5"/><circle cx="54.3" cy="110.6" r="1.5"/><circle cx="62.3" cy="98.3" r="1.5"/><circle cx="64.5" cy="130.3" r="1.5"/><circle cx="71.3" cy="156.0" r="1.5"/><circle cx="86.2" cy="160.1" r="1.5"/><circle cx="72.7" cy="170.7" r="1.5"/><circle cx="83.9" cy="181.1" r="1.5"/><circle cx="91.1" cy="190.3" r="1.5"/><circle cx="83.0" cy="204.3" r="1.5"/><circle cx="81.7" cy="215.2" r="1.5"/><circle cx="85.6" cy="72.9" r="1.5"/><circle cx="79.6" cy="59.5" r="1.5"/><circle cx="82.1" cy="101.5" r="1.5"/><circle cx="88.5" cy="92.4" r="1.5"/><circle cx="87.8" cy="121.6" r="1.5"/><circle cx="99.9" cy="117.8" r="1.5"/><circle cx="83.2" cy="138.2" r="1.5"/><circle cx="94.6" cy="147.9" r="1.5"/><circle cx="107.6" cy="148.3" r="1.5"/><circle cx="90.6" cy="164.0" r="1.5"/><circle cx="107.4" cy="176.5" r="1.5"/><circle cx="108.5" cy="197.9" r="1.5"/><circle cx="120.8" cy="212.6" r="1.5"/><circle cx="106.0" cy="55.3" r="1.5"/><circle cx="112.9" cy="68.9" r="1.5"/><circle cx="110.3" cy="86.7" r="1.5"/><circle cx="112.3" cy="114.4" r="1.5"/><circle cx="124.6" cy="115.1" r="1.5"/><circle cx="136.2" cy="124.7" r="1.5"/><circle cx="119.5" cy="145.9" r="1.5"/><circle cx="130.9" cy="139.0" r="1.5"/><circle cx="137.3" cy="131.2" r="1.5"/><circle cx="128.1" cy="170.0" r="1.5"/><circle cx="139.6" cy="161.0" r="1.5"/><circle cx="136.6" cy="204.2" r="1.5"/><circle cx="135.3" cy="191.5" r="1.5"/><circle cx="136.0" cy="47.0" r="1.5"/><circle cx="134.3" cy="62.9" r="1.5"/><circle cx="141.5" cy="81.7" r="1.5"/><circle cx="148.4" cy="93.5" r="1.5"/><circle cx="148.0" cy="109.7" r="1.5"/><circle cx="142.9" cy="150.2" r="1.5"/><circle cx="152.0" cy="134.0" r="1.5"/><circle cx="152.1" cy="179.0" r="1.5"/><circle cx="160.5" cy="165.9" r="1.5"/><circle cx="157.1" cy="151.7" r="1.5"/><circle cx="167.9" cy="199.7" r="1.5"/><circle cx="158.4" cy="187.1" r="1.5"/><circle cx="162.6" cy="40.0" r="1.5"/><circle cx="160.5" cy="56.3" r="1.5"/><circle cx="179.7" cy="66.1" r="1.5"/><circle cx="170.5" cy="74.9" r="1.5"/><circle cx="173.2" cy="90.1" r="1.5"/><circle cx="185.4" cy="93.0" r="1.5"/><circle cx="173.3" cy="105.0" r="1.5"/><circle cx="179.2" cy="131.6" r="1.5"/><circle cx="200.0" cy="167.0" r="1.5"/><circle cx="189.3" cy="159.3" r="1.5"/><circle cx="180.2" cy="149.7" r="1.5"/><circle cx="193.3" cy="193.6" r="1.5"/><circle cx="189.0" cy="179.3" r="1.5"/></g><text x="20" y="245">patch 0: fitting UV support</text><foreignObject x="20" y="252" width="220" height="90"><div xmlns="http://www.w3.org/1999/xhtml" style="font:10px sans-serif;white-space:normal">idw_seed: coverage=0.076, degenerate=0.000, fold=0.017 | round_1: coverage=0.076, degenerate=0.000, fold=0.000 | round_2: coverage=0.076, degenerate=0.000, fold=0.000</div></foreignObject></g></svg>